Coordinates
version=1
nRows=8
nColumns=34
inDegrees=yes

Units are S.I. units (second, meters, Newtons, ...)
If the header above contains a line with 'inDegrees', this indicates whether rotational values are in degrees (yes) or radians (no).

endheader
time	pelvis_tilt	pelvis_list	pelvis_rotation	pelvis_tx	pelvis_ty	pelvis_tz	hip_flexion_r	hip_adduction_r	hip_rotation_r	knee_angle_r	ankle_angle_r	subtalar_angle_r	mtp_angle_r	hip_flexion_l	hip_adduction_l	hip_rotation_l	knee_angle_l	ankle_angle_l	subtalar_angle_l	mtp_angle_l	lumbar_extension	lumbar_bending	lumbar_rotation	arm_flex_r	arm_add_r	arm_rot_r	elbow_flex_r	pro_sup_r	arm_flex_l	arm_add_l	arm_rot_l	elbow_flex_l	pro_sup_l
      8.23333330	      7.08118015	    -13.03294845	    -33.20866910	      3.15227973	      1.04696875	      1.02654045	    -23.77803976	      4.76642709	     -0.01567843	      6.86691366	     22.75688333	      9.90667251	      0.00000000	    -18.31002298	      3.11600587	      4.61303546	     12.05837223	     18.02525093	      7.30782624	      0.00000000	     -5.78990572	      2.17460033	      2.50392863	     16.17507368	     -8.14664387	     28.84064833	     28.86737469	    119.74590479	     20.74075437	     -3.21755381	      9.39497255	     21.52034725	    119.74796960
      8.25000000	      6.94142757	    -12.89421767	    -33.93352016	      3.15323765	      1.04684374	      1.02813324	    -23.45794279	      4.48734147	      1.16030404	      7.25116107	     22.76148315	      9.08479439	      0.00000000	    -18.58776527	      3.55651830	      6.18008555	     11.61153888	     18.72854182	      5.17156637	      0.00000000	     -5.49271269	      2.08414646	      3.08904667	     16.49557322	     -8.58954317	     31.09297552	     29.07491222	    119.53477127	     20.35159910	     -3.05513114	      7.54000214	     21.93282984	    119.74817918
      8.26666670	      7.03386241	    -12.84353090	    -34.33657120	      3.15409018	      1.04675088	      1.02907205	    -23.21062860	      4.21721120	      1.52961382	      7.98127665	     23.15213345	      8.81978784	      0.00000000	    -18.77841163	      3.83806694	      6.93803032	     11.77009318	     20.28849439	      4.97361132	      0.00000000	     -5.52368093	      1.91938746	      3.53143512	     16.54522104	     -8.77066489	     31.29195601	     29.73895265	    119.49756267	     20.36206836	     -3.06051786	      7.28192295	     22.01408072	    119.74817918
      8.28333330	      6.62064564	    -12.60698994	    -35.05069563	      3.15435550	      1.04603132	      1.02957904	    -22.00870790	      3.99643157	      2.32573002	      9.35313848	     23.59745233	      8.16871900	      0.00000000	    -18.10483345	      4.13663858	      7.28748588	     12.35090685	     21.37478227	      3.98189186	      0.00000000	     -5.06142682	      1.98841435	      4.01463791	     16.76973385	     -8.98279015	     31.74305747	     30.14170577	    119.39036857	     20.46860928	     -2.85314875	      6.34071761	     21.61342180	    119.74817918
      8.30000000	      6.79810703	    -12.51457806	    -35.15045183	      3.15512377	      1.04569272	      1.02985470	    -21.53552059	      3.74589323	      2.54892158	     10.59200586	     24.11356328	      7.73486786	      0.00000000	    -18.56163774	      4.44121003	      7.96304929	     11.93270855	     22.59929034	      3.95368387	      0.00000000	     -5.22692439	      1.71782480	      4.04791191	     17.03698103	     -8.95451856	     31.73696613	     30.24296850	    119.34437118	     20.60750324	     -2.89265296	      6.16392338	     21.63451661	    119.74817918
      8.31666670	      6.52850528	    -11.69513328	    -35.90488330	      3.15682891	      1.04466467	      1.03084312	    -20.00059383	      2.95944021	      3.24114577	     12.32358386	     24.89943977	      6.84359573	      0.00000000	    -18.40234889	      5.38778296	      8.74014949	     11.15807856	     22.80426797	      1.87228605	      0.00000000	     -4.43636283	      1.16932676	      4.44029006	     17.04466108	     -9.08163601	     32.49057436	     30.24468380	    119.20956607	     20.31390739	     -2.85855715	      5.27550806	     21.60342618	    119.74817918
      8.33333330	      6.87645556	    -11.29825237	    -35.99779878	      3.15864217	      1.04440789	      1.03124794	    -19.51251068	      2.35280022	      3.41707706	     13.62005116	     25.34066886	      6.31371978	      0.00000000	    -19.22904186	      6.04100963	      9.32934631	     10.00691868	     23.61145876	      1.64820353	      0.00000000	     -4.48088979	      0.57156137	      4.19180831	     17.22764562	     -9.05779138	     32.69369898	     30.53940800	    119.19823306	     20.34302646	     -3.08305926	      5.19080683	     21.60128571	    119.74817918
      8.35000000	      7.49861448	    -11.00910934	    -36.05208379	      3.16037588	      1.04432671	      1.03152133	    -19.40870799	      1.67522722	      3.33405709	     14.75763654	     25.57341470	      5.46231785	      0.00000000	    -20.33078817	      6.80023653	      9.96440514	      8.82654512	     23.63416305	      1.31260074	      0.00000000	     -4.87158134	     -0.06080510	      3.84353322	     17.68063298	     -8.99107467	     32.99114763	     30.49060911	    119.18823213	     20.43659609	     -3.39511574	      5.24299836	     21.63382299	    119.74817918
